<?xml version="1.0" encoding="UTF-8"?>
<!DOCTYPE svg PUBLIC "-//W3C//DTD SVG 1.1//EN" "http://www.w3.org/Graphics/SVG/1.1/DTD/svg11.dtd">
<!-- Creator: CorelDRAW -->
<svg xmlns="http://www.w3.org/2000/svg" xml:space="preserve" width="57.3076mm" height="65mm" version="1.1" style="shape-rendering:geometricPrecision; text-rendering:geometricPrecision; image-rendering:optimizeQuality; fill-rule:evenodd; clip-rule:evenodd"
viewBox="0 0 4682.12 5310.6"
 xmlns:xlink="http://www.w3.org/1999/xlink"
 xmlns:xodm="http://www.corel.com/coreldraw/odm/2003">
 <defs>
  <style type="text/css">
   <![CDATA[
    .fil1 {fill:#07689D}
    .fil0 {fill:url(#id0)}
   ]]>
  </style>
  <linearGradient id="id0" gradientUnits="userSpaceOnUse" x1="713.1" y1="2031.03" x2="2150.55" y2="93.21">
   <stop offset="0" style="stop-opacity:1; stop-color:#0D3145"/>
   <stop offset="1" style="stop-opacity:1; stop-color:#07689D"/>
  </linearGradient>
 </defs>
 <g id="Слой_x0020_1">
  <metadata id="CorelCorpID_0Corel-Layer"/>
  <path class="fil0" d="M739.42 2.3l-5.58 -2.3 -525.6 0c-112.12,0 -232.71,95.55 -203.91,203.9l173.96 654.32c28.8,108.35 91.74,203.9 203.9,203.9l357.23 0 0.77 0c32.16,0.25 1061.35,16.59 1061.35,1062.12l1062.12 0c0,0 0,-2124.24 -2124.24,-2124.24l0 2.3z"/>
  <path class="fil1" d="M2859.75 4315.86l0 619 0 165.16c0,115.84 -94.74,210.58 -210.58,210.58l-640.97 0c-115.84,0 -210.58,-94.74 -210.58,-210.58l0 -165.16 0 -619 0 -1415.89 0 -489.34 0 -286.39 0 -1.53 0 -13 0.25 -0.7c4.93,-189.59 104.66,-2109.01 2123.99,-2109.01l0 2.3 5.59 -2.3 546.61 0c112.09,0 231.99,95.31 203.9,203.9l-169.25 654.32c-28.09,108.59 -91.75,203.9 -203.91,203.9l-382.94 0 -0.77 0c-32.16,0.25 -1061.35,16.59 -1061.35,1062.12l775.73 0c157.53,0 286.39,128.86 286.39,286.39l0 489.34c0,157.53 -128.86,286.39 -286.39,286.39l-775.73 0 0 1129.5z"/>
 </g>
</svg>
