<?xml version="1.0" encoding="UTF-8"?>
<svg xmlns="http://www.w3.org/2000/svg" id="Layer_1" fill="white" data-name="Layer 1" viewBox="0 0 24 24">
  <path d="m8.8,17.225c.221.166.266.479.1.7-.098.131-.248.2-.4.2-.104,0-.209-.032-.299-.1l-4.434-3.325c-.601-.452-1.347-.7-2.1-.7H.5c-.276,0-.5-.224-.5-.5s.224-.5.5-.5h1.167c.968,0,1.927.319,2.7.9l4.433,3.324Zm1.2-7.225c-.068,0,.068.005,0,0h0Zm3.039-1.98l2.161,1.621c.09.067.195.1.299.1.152,0,.302-.069.4-.2.166-.221.121-.534-.1-.7l-2.029-1.521,2.114-2.023c.2-.191.207-.507.016-.707s-.508-.206-.707-.016l-4.166,3.987c-.312.312-.745.462-1.182.435-.446-.036-.838-.26-1.105-.63-.42-.583-.316-1.444.231-1.991L13.676,1.946c1.037-.978,2.661-1.217,3.94-.579l2.315,1.158c.622.311,1.318.475,2.013.475h1.556c.276,0,.5-.224.5-.5s-.224-.5-.5-.5h-1.556c-.541,0-1.082-.128-1.565-.37l-2.315-1.158c-1.646-.821-3.736-.513-5.073.745l-.955.9-1.042-.949c-.827-.753-1.898-1.168-3.054-1.168-.691,0-1.384.164-2.003.473l-2.315,1.158c-.483.242-1.025.37-1.565.37H.5c-.276,0-.5.224-.5.5s.224.5.5.5h1.556c.695,0,1.391-.164,2.013-.475l2.314-1.158c1.21-.604,2.871-.432,3.937.54l.986.898-3.029,2.852c-.901.9-1.049,2.315-.346,3.292.434.604,1.07,1.051,2.07,1.051.5,0,1.264-.26,1.728-.725l1.312-1.255Zm7.103,8.111l-2.706,2.618c-.337.33-.885.334-1.223.004l-1.363-1.345c-.196-.194-.514-.191-.707.004-.194.197-.192.514.005.707l1.364,1.347c.362.354.837.531,1.312.531s.951-.178,1.311-.533l2.703-2.614c.198-.192.204-.509.012-.707-.191-.198-.508-.203-.707-.012Zm3.857,1.369c0,3.584-2.916,6.5-6.5,6.5s-6.5-2.916-6.5-6.5,2.916-6.5,6.5-6.5,6.5,2.916,6.5,6.5Zm-1,0c0-3.032-2.467-5.5-5.5-5.5s-5.5,2.468-5.5,5.5,2.467,5.5,5.5,5.5,5.5-2.468,5.5-5.5Z"/>
</svg>
