<?xml version="1.0" encoding="UTF-8"?>
<!DOCTYPE svg PUBLIC "-//W3C//DTD SVG 1.1//EN" "http://www.w3.org/Graphics/SVG/1.1/DTD/svg11.dtd">
<!-- Creator: CorelDRAW -->
<svg xmlns="http://www.w3.org/2000/svg" xml:space="preserve" width="57.3076mm" height="65mm" version="1.1" style="shape-rendering:geometricPrecision; text-rendering:geometricPrecision; image-rendering:optimizeQuality; fill-rule:evenodd; clip-rule:evenodd"
viewBox="0 0 33316.71 37788.81"
 xmlns:xlink="http://www.w3.org/1999/xlink"
 xmlns:xodm="http://www.corel.com/coreldraw/odm/2003">
 <defs>
  <style type="text/css">
   <![CDATA[
    .fil1 {fill:#C5C6C6}
    .fil0 {fill:url(#id0)}
   ]]>
  </style>
  <linearGradient id="id0" gradientUnits="userSpaceOnUse" x1="5074.22" y1="14452.24" x2="15302.72" y2="663.28">
   <stop offset="0" style="stop-opacity:1; stop-color:#5F6162"/>
   <stop offset="1" style="stop-opacity:1; stop-color:#C5C6C6"/>
  </linearGradient>
 </defs>
 <g id="Слой_x0020_1">
  <metadata id="CorelCorpID_0Corel-Layer"/>
  <path class="fil0" d="M5261.48 16.34l-39.71 -16.34 -3740.05 0c-797.81,0 -1655.91,679.91 -1450.97,1450.92l1237.85 4655.93c204.93,771.01 652.82,1450.92 1450.92,1450.92l2541.97 0 5.46 0c228.83,1.8 7552.3,118.08 7552.3,7557.76l7557.76 0c0,0 0,-15115.52 -15115.52,-15115.52l0 16.34z"/>
  <path class="fil1" d="M20349.22 30710.5l0 4404.66 0 1175.23c0,824.26 -674.15,1498.41 -1498.41,1498.41l-4560.93 0c-824.26,0 -1498.41,-674.15 -1498.41,-1498.41l0 -1175.23 0 -4404.66 0 -10075.08 0 -3482.04 0 -2037.86 0 -10.87 0 -92.5 1.8 -5c35.06,-1349.06 744.73,-15007.16 15113.72,-15007.16l0 16.34 39.77 -16.34 3889.51 0c797.63,0 1650.79,678.22 1450.92,1450.92l-1204.36 4655.93c-199.87,772.69 -652.87,1450.92 -1450.97,1450.92l-2724.86 0 -5.46 0c-228.83,1.8 -7552.3,118.08 -7552.3,7557.76l5519.9 0c1120.93,0 2037.86,916.93 2037.86,2037.86l0 3482.04c0,1120.93 -916.93,2037.86 -2037.86,2037.86l-5519.9 0 0 8037.21z"/>
 </g>
</svg>
