<?xml version="1.0" encoding="UTF-8"?>
<!DOCTYPE svg PUBLIC "-//W3C//DTD SVG 1.1//EN" "http://www.w3.org/Graphics/SVG/1.1/DTD/svg11.dtd">
<!-- Creator: CorelDRAW -->
<svg xmlns="http://www.w3.org/2000/svg" xml:space="preserve" width="57.3076mm" height="65mm" version="1.1" style="shape-rendering:geometricPrecision; text-rendering:geometricPrecision; image-rendering:optimizeQuality; fill-rule:evenodd; clip-rule:evenodd"
viewBox="0 0 2268.73 2573.26"
 xmlns:xlink="http://www.w3.org/1999/xlink"
 xmlns:xodm="http://www.corel.com/coreldraw/odm/2003">
 <defs>
  <style type="text/css">
   <![CDATA[
    .fil1 {fill:#00A0E3}
    .fil0 {fill:url(#id0)}
   ]]>
  </style>
  <linearGradient id="id0" gradientUnits="userSpaceOnUse" x1="345.53" y1="984.14" x2="1042.05" y2="45.17">
   <stop offset="0" style="stop-opacity:1; stop-color:#096692"/>
   <stop offset="1" style="stop-opacity:1; stop-color:#00A0E3"/>
  </linearGradient>
 </defs>
 <g id="Слой_x0020_1">
  <metadata id="CorelCorpID_0Corel-Layer"/>
  <path class="fil0" d="M358.28 1.11l-2.7 -1.11 -254.68 0c-54.33,0 -112.76,46.3 -98.81,98.8l84.29 317.05c13.95,52.5 44.45,98.8 98.8,98.8l173.1 0 0.37 0c15.58,0.12 514.28,8.04 514.28,514.65l514.65 0c0,0 0,-1029.3 -1029.3,-1029.3l0 1.11z"/>
  <path class="fil1" d="M1385.7 2091.26l0 299.94 0 80.03c0,56.13 -45.91,102.04 -102.04,102.04l-310.58 0c-56.13,0 -102.04,-45.91 -102.04,-102.04l0 -80.03 0 -299.94 0 -686.07 0 -237.11 0 -138.77 0 -0.74 0 -6.3 0.12 -0.34c2.39,-91.87 50.71,-1021.92 1029.18,-1021.92l0 1.11 2.71 -1.11 264.86 0c54.32,0 112.41,46.18 98.8,98.8l-82.01 317.05c-13.61,52.62 -44.46,98.8 -98.81,98.8l-185.55 0 -0.37 0c-15.58,0.12 -514.28,8.04 -514.28,514.65l375.88 0c76.33,0 138.77,62.44 138.77,138.77l0 237.11c0,76.33 -62.44,138.77 -138.77,138.77l-375.88 0 0 547.3z"/>
 </g>
</svg>
