<svg width="143" height="33" viewBox="0 0 143 33" fill="none" xmlns="http://www.w3.org/2000/svg">
<path d="M7.41918 29.878V17.3902H19.9696V15.2927H7.41918V3.34144H25.2976L26.1264 7.39022H27.2512C27.4288 5.39022 27.488 3.63413 27.6064 1.48778H0.255981V2.41461L4.16318 3.14632V29.7805L0.255981 30.561V31.4878H11.4448V30.6097L7.41918 29.878ZM36.1312 16.5122C36.1312 2.75608 48.8592 2.65852 51.2864 2.65852C53.4176 2.65852 67.0336 2.41461 67.0336 16.5122C67.0336 30.4146 53.4768 30.4634 51.3456 30.4634C48.9184 30.4634 36.1312 30.9024 36.1312 16.5122ZM51.3456 0.853638C39.2688 0.999979 32.2832 6.26827 32.2832 16.561C32.4016 26.0244 37.3152 32.3171 51.3456 32.3171C65.1984 32.3171 70.4672 25.439 70.4672 16.561C70.4672 6.26827 64.6656 0.999979 51.3456 0.853638ZM80.6496 14.8536V3.29266H89.7664C96.0416 3.29266 98.232 6.41461 98.232 9.04876C98.232 11.5366 96.456 14.8536 89.7664 14.8536H80.6496ZM73.4864 1.439V2.31705L77.3936 3.09754V29.878L73.368 30.6097V31.4878H84.7344C84.7344 31.1951 84.6752 31.0975 84.6752 30.6097C83.0768 30.3658 82.0112 30.2195 81.4192 30.0732L80.6496 29.878V16.9024H90.832C93.2 16.9024 94.3248 17.7317 95.5088 19.6341L100.6 29.8292L96.2192 30.6097V31.4878H107.586C107.586 31.1951 107.526 31.0975 107.526 30.6585L103.856 29.9268L99.3568 20.7073C98.2912 18.7073 96.9296 16.2683 93.6144 15.9268C97.2848 15.2439 101.666 13.7317 101.666 9.09754C101.666 4.9512 97.8768 1.439 89.7072 1.439H73.4864ZM125.168 29.878V20.3171L139.08 2.99998L142.573 2.31705V1.439H131.917V2.31705L135.528 2.9512L123.392 18.5122L111.493 2.9512L115.4 2.31705V1.439H104.626V2.31705L108.118 2.99998L121.734 20.3171V29.878L117.827 30.6097V31.4878H129.134V30.6097L125.168 29.878Z" fill="#317BDA"/>
</svg>
