<svg width="206" height="45" viewBox="0 0 206 45" fill="none" xmlns="http://www.w3.org/2000/svg">
<g clip-path="url(#clip0_1085_138397)">
<mask id="mask0_1085_138397" style="mask-type:luminance" maskUnits="userSpaceOnUse" x="0" y="0" width="206" height="45">
<path d="M205.053 0.375H0.280273V44.3916H205.053V0.375Z" fill="white"/>
</mask>
<g mask="url(#mask0_1085_138397)">
<path d="M0.28125 13.0638C0.28125 12.7605 0.416611 12.6089 0.687333 12.6089H2.02762C2.12229 12.6088 2.21547 12.6326 2.29857 12.678C2.40443 12.746 2.48622 12.8456 2.53229 12.9628L8.65801 25.0743L9.05169 26.2492L8.92827 25.0653L8.83037 13.0638C8.82582 12.9456 8.86293 12.8296 8.93517 12.7361C8.97379 12.6918 9.02219 12.6571 9.07652 12.6348C9.13086 12.6124 9.18963 12.6031 9.24818 12.6075H10.627C10.7313 12.6036 10.833 12.6411 10.9097 12.7119C10.9833 12.7815 11.0203 12.8946 11.0207 13.0513V29.75C11.0207 30.0463 10.8769 30.1944 10.5891 30.1944H9.28472C9.18664 30.192 9.09024 30.1684 9.00205 30.1253C8.89211 30.066 8.80862 29.9673 8.76832 29.8488L2.68052 17.9095L2.24961 16.7013L2.38751 17.9219L2.45852 29.7362C2.45852 30.0403 2.32729 30.1923 2.06485 30.1923H0.685955C0.416152 30.1923 0.28125 30.0403 0.28125 29.7362V13.0638Z" fill="white"/>
<path d="M25.7408 29.7234C25.7898 29.8616 25.7842 29.9756 25.7229 30.062C25.6913 30.1049 25.6495 30.1391 25.6013 30.1617C25.5531 30.1843 25.5001 30.1944 25.4471 30.1913H23.86C23.7652 30.1901 23.6722 30.165 23.5897 30.118C23.5402 30.087 23.498 30.0454 23.4662 29.9964C23.4342 29.9474 23.4133 29.8919 23.4049 29.834L22.5797 26.591H17.2655L16.4533 29.834C16.4448 29.8918 16.4241 29.9472 16.3923 29.9962C16.3604 30.0453 16.3185 30.0868 16.2692 30.118C16.1864 30.1649 16.0933 30.19 15.9983 30.1913H14.4145C14.3621 30.1951 14.3096 30.1852 14.262 30.1626C14.2145 30.1399 14.1737 30.1052 14.1436 30.062C14.1145 30.011 14.0971 29.9542 14.0928 29.8955C14.0886 29.8369 14.0974 29.7781 14.1188 29.7234L18.807 12.9769C18.8325 12.8614 18.8953 12.7574 18.9856 12.6811C19.0619 12.6238 19.155 12.5934 19.2503 12.5948H20.6154C20.7125 12.5943 20.8074 12.6244 20.8864 12.6811C20.9793 12.7561 21.0442 12.8603 21.0705 12.9769L25.7408 29.7234ZM17.7928 24.5189H22.0612L20.117 16.7998L19.9329 15.4928L19.7481 16.7998L17.7928 24.5189Z" fill="white"/>
<path d="M33.3152 13.0511C33.3152 12.8873 33.3559 12.7747 33.4386 12.7056C33.5105 12.6436 33.6018 12.609 33.6965 12.6074H35.1726C35.3367 12.6074 35.4484 12.6503 35.5111 12.7367C35.5786 12.8456 35.611 12.9729 35.6035 13.1009L35.5911 26.1351C35.5996 26.7479 35.4845 27.356 35.2526 27.9231C35.046 28.4326 34.7367 28.8939 34.344 29.2779C33.9513 29.6619 33.4837 29.9605 32.9705 30.1549C32.4331 30.3627 31.8615 30.4673 31.2856 30.4631C30.6539 30.4651 30.0282 30.3412 29.4447 30.099C28.8961 29.8831 28.4018 29.5487 27.9968 29.1195C27.909 29.0281 27.8419 28.9187 27.8004 28.7988C27.7514 28.6668 27.7838 28.5437 27.899 28.4283L28.698 27.4912C28.8132 27.3763 28.9255 27.3315 29.0365 27.3529C29.1538 27.3816 29.2592 27.4464 29.3378 27.5381C29.5609 27.7394 29.8117 27.9075 30.0825 28.0372C30.4211 28.2027 30.7943 28.2852 31.171 28.2776C31.4676 28.2808 31.7612 28.22 32.0322 28.0994C32.2907 27.9828 32.5214 27.8124 32.7092 27.5997C32.9053 27.3716 33.0556 27.1078 33.1519 26.8228C33.2608 26.5013 33.3146 26.1636 33.3111 25.824L33.3152 13.0511Z" fill="white"/>
<path d="M38.9835 18.2795C38.9789 17.4975 39.0951 16.7194 39.3283 15.9732C39.5437 15.2771 39.8927 14.6301 40.3555 14.0683C40.8187 13.5157 41.3984 13.0732 42.0529 12.773C42.7291 12.4564 43.5144 12.2984 44.4088 12.2988C45.2941 12.2988 46.0755 12.4569 46.753 12.773C47.4079 13.074 47.9903 13.5129 48.4607 14.06C48.9325 14.6173 49.2882 15.2635 49.5073 15.9607C49.7442 16.706 49.8624 17.4842 49.8575 18.2664V24.5437C49.8623 25.325 49.744 26.1022 49.5073 26.8466C49.2889 27.5423 48.9355 28.1877 48.4676 28.746C47.9989 29.2959 47.4155 29.736 46.7584 30.035C46.0768 30.3516 45.2925 30.5098 44.4053 30.5098C43.5183 30.5098 42.7392 30.3519 42.0682 30.0357C41.4159 29.7345 40.8366 29.2947 40.3707 28.7467C39.9037 28.188 39.5514 27.5423 39.3338 26.8466C39.0967 26.1013 38.9786 25.3232 38.9835 24.5409V18.2795ZM41.2587 24.6916C41.2548 25.1759 41.3229 25.6581 41.4607 26.1223C41.5841 26.5427 41.7891 26.9345 42.064 27.2752C42.3318 27.6012 42.6676 27.8645 43.0478 28.0465C43.4732 28.2426 43.9373 28.3392 44.4053 28.3292C44.8758 28.3391 45.3424 28.2424 45.7704 28.0465C46.1543 27.8648 46.4943 27.6016 46.7667 27.2752C47.0446 26.938 47.2517 26.548 47.3755 26.1286C47.5156 25.6669 47.5853 25.1866 47.5824 24.7041V18.1068C47.5868 17.6282 47.517 17.1519 47.3755 16.6947C47.2472 16.2754 47.0409 15.8843 46.7674 15.5418C46.4983 15.2113 46.1601 14.9439 45.7767 14.7588C45.3488 14.5684 44.8862 14.4695 44.4181 14.4685C43.9501 14.4674 43.4869 14.5642 43.0582 14.7526C42.6743 14.9339 42.336 15.1993 42.0682 15.5294C41.793 15.872 41.5869 16.2649 41.4614 16.6864C41.3243 17.1465 41.2561 17.6246 41.2594 18.1047L41.2587 24.6916Z" fill="white"/>
<path d="M51.9465 13.0235C51.9423 12.9668 51.9494 12.9097 51.9674 12.8558C51.9853 12.8017 52.0139 12.7519 52.0513 12.7091C52.086 12.6745 52.1273 12.6474 52.1729 12.6295C52.2184 12.6115 52.2671 12.6031 52.316 12.6047H62.1806C62.2276 12.604 62.2741 12.6128 62.3176 12.6308C62.3609 12.6487 62.4003 12.6754 62.433 12.7091C62.4707 12.7518 62.4994 12.8016 62.5176 12.8556C62.5356 12.9096 62.5428 12.9668 62.5385 13.0235V14.3921C62.5385 14.5303 62.504 14.6326 62.4336 14.6941C62.3642 14.7557 62.274 14.7888 62.1813 14.7868H58.3804V29.7727C58.3889 29.8865 58.3533 29.9991 58.2812 30.0872C58.248 30.122 58.2079 30.1492 58.1635 30.1672C58.119 30.1852 58.0712 30.1935 58.0233 30.1916H56.4713C56.4215 30.1944 56.3716 30.1866 56.325 30.1686C56.2784 30.1506 56.2362 30.1228 56.2011 30.0872C56.1286 29.9993 56.093 29.8865 56.1019 29.7727V14.7895H52.316C52.2194 14.793 52.1249 14.76 52.0513 14.6969C51.9824 14.6354 51.9465 14.5352 51.9465 14.3948V13.0235Z" fill="white"/>
<path d="M139.761 13.0235C139.757 12.9668 139.764 12.9098 139.782 12.8558C139.799 12.8018 139.828 12.7519 139.865 12.7091C139.9 12.6745 139.942 12.6475 139.987 12.6295C140.033 12.6117 140.081 12.6031 140.13 12.6047H149.996C150.043 12.6039 150.088 12.6128 150.132 12.6307C150.176 12.6487 150.215 12.6753 150.247 12.7091C150.285 12.7519 150.313 12.8018 150.331 12.8558C150.349 12.9098 150.356 12.9668 150.352 13.0235V14.392C150.352 14.5303 150.317 14.6326 150.247 14.6941C150.178 14.7555 150.087 14.7886 149.996 14.7866H146.194V29.7727C146.203 29.8864 146.168 29.999 146.095 30.0872C146.063 30.1218 146.023 30.1491 145.978 30.1671C145.934 30.1851 145.886 30.1934 145.838 30.1915H144.288C144.238 30.1943 144.188 30.1863 144.141 30.1684C144.095 30.1504 144.052 30.1227 144.017 30.0872C143.945 29.999 143.91 29.8864 143.918 29.7727V14.7894H140.13C140.034 14.7928 139.939 14.7597 139.865 14.6968C139.796 14.6354 139.761 14.5351 139.761 14.3948V13.0235Z" fill="white"/>
<path d="M162.63 29.7234C162.68 29.8617 162.673 29.9757 162.612 30.0621C162.58 30.1051 162.539 30.1394 162.49 30.162C162.442 30.1846 162.389 30.1947 162.336 30.1914H160.75C160.655 30.1902 160.562 30.165 160.48 30.1181C160.43 30.0869 160.388 30.0453 160.356 29.9963C160.325 29.9473 160.304 29.8919 160.295 29.8341L159.468 26.5911H154.154L153.341 29.8341C153.333 29.8919 153.313 29.9473 153.28 29.9963C153.248 30.0453 153.206 30.0869 153.158 30.1181C153.074 30.165 152.982 30.1901 152.887 30.1914H151.3C151.249 30.1955 151.196 30.1856 151.148 30.1629C151.1 30.1403 151.06 30.1055 151.029 30.0621C151.001 30.0112 150.983 29.9542 150.979 29.8956C150.974 29.8369 150.984 29.7781 151.005 29.7234L155.693 12.977C155.718 12.8614 155.781 12.7573 155.871 12.6812C155.948 12.6239 156.04 12.5935 156.135 12.5948H157.502C157.598 12.5942 157.693 12.6244 157.772 12.6812C157.865 12.7559 157.931 12.8602 157.956 12.977L162.63 29.7234ZM154.684 24.519H158.952L157.008 16.7999L156.823 15.4929L156.64 16.7999L154.684 24.519Z" fill="white"/>
<path d="M165.389 13.1501C165.381 13.0147 165.423 12.8812 165.504 12.7735C165.548 12.7251 165.603 12.6875 165.664 12.6636C165.724 12.6396 165.79 12.6299 165.855 12.6352H167.43C167.742 12.6352 167.898 12.808 167.898 13.1535V15.2616C167.902 15.4934 167.855 15.7233 167.759 15.9341C167.675 16.1121 167.551 16.2682 167.396 16.3903C167.241 16.5115 167.063 16.6017 166.874 16.6557C166.678 16.713 166.475 16.7421 166.271 16.7421C166.016 16.7421 165.889 16.6392 165.889 16.4331V15.9266C165.886 15.885 165.895 15.8436 165.915 15.8069C165.934 15.7702 165.964 15.7398 166 15.7192C166.079 15.6763 166.168 15.6548 166.259 15.657C166.302 15.6619 166.347 15.6567 166.389 15.6419C166.43 15.6271 166.467 15.6029 166.499 15.5713C166.548 15.499 166.572 15.4122 166.568 15.3245C166.574 15.2445 166.555 15.1643 166.512 15.0965C166.485 15.0705 166.454 15.0508 166.418 15.0389C166.383 15.0269 166.346 15.023 166.308 15.0273H165.805C165.696 15.0295 165.591 14.9897 165.509 14.916C165.428 14.8421 165.387 14.7232 165.387 14.558L165.389 13.1501Z" fill="white"/>
<path d="M172.205 13.0636C172.205 12.7595 172.34 12.6074 172.611 12.6074H174.076C174.346 12.6074 174.482 12.7595 174.482 13.0636V28.0219H180.227C180.327 28.0172 180.426 28.0505 180.503 28.1152C180.572 28.1768 180.607 28.277 180.607 28.4166V29.7733C180.612 29.8302 180.605 29.8872 180.586 29.9413C180.569 29.9952 180.54 30.0451 180.503 30.0879C180.466 30.1233 180.423 30.1508 180.376 30.1689C180.328 30.1869 180.277 30.1951 180.227 30.1929H172.611C172.34 30.1929 172.205 30.0409 172.205 29.7368V13.0636Z" fill="white"/>
<path d="M184.25 13.0636C184.25 12.7595 184.388 12.6074 184.668 12.6074H186.131C186.394 12.6074 186.525 12.7595 186.525 13.0636V29.736C186.525 30.0402 186.394 30.1923 186.131 30.1923H184.668C184.389 30.1923 184.25 30.0402 184.25 29.736V13.0636Z" fill="white"/>
<path d="M194.006 17.9952L193.563 16.3925L193.711 17.9821L193.808 29.7494C193.825 30.0452 193.702 30.1931 193.441 30.1931H192.001C191.868 30.1931 191.779 30.1523 191.73 30.0701C191.676 29.9679 191.65 29.853 191.656 29.7376V13.0016C191.658 12.8941 191.695 12.7902 191.76 12.705C191.794 12.6675 191.834 12.638 191.88 12.6189C191.926 12.5997 191.976 12.5913 192.025 12.5945H193.759C193.802 12.5902 193.845 12.5969 193.886 12.6141C193.925 12.6312 193.96 12.6583 193.986 12.6926C194.041 12.7775 194.084 12.8686 194.116 12.9642L198.157 23.7175L198.354 24.7412L198.551 23.7044L202.619 12.9629C202.65 12.8672 202.694 12.7759 202.747 12.6912C202.774 12.6568 202.809 12.6298 202.849 12.6126C202.889 12.5955 202.933 12.5888 202.976 12.5931H204.687C204.737 12.59 204.785 12.5983 204.831 12.6176C204.877 12.6367 204.918 12.6662 204.95 12.7037C205.015 12.7887 205.052 12.8927 205.054 13.0002V29.7355C205.072 30.0396 204.962 30.1915 204.723 30.191H203.28C203.036 30.191 202.915 30.0431 202.915 29.7473L203.024 17.9973L203.162 16.4436L202.744 17.9973L199.297 27.0856C199.273 27.1933 199.222 27.2932 199.149 27.3759C199.085 27.4321 199.001 27.4608 198.916 27.456H197.807C197.726 27.4596 197.646 27.4308 197.586 27.3759C197.513 27.2932 197.462 27.1933 197.439 27.0856L194.006 17.9952Z" fill="white"/>
<path d="M133.923 13.6287L132.182 13.9314C128.637 14.5487 125.338 15.4906 122.335 16.5992V7.04751L121.409 7.46634C119.304 8.41616 117.307 9.40865 115.403 10.4547L115.339 0.447451L114.332 1.09455C109.43 4.23975 104.934 7.81371 100.92 11.7479C97.0533 8.07573 92.6956 4.50971 87.9108 1.11143L86.8734 0.375V10.7475C84.8006 9.57737 82.6755 8.51143 80.5058 7.55865L79.58 7.15172L79.6236 16.0335C76.4482 14.9378 73.251 14.2222 70.0825 13.8986L68.5234 13.7399L81.0038 29.4093L80.9485 17.9391C83.0934 18.7798 85.0783 19.7394 86.8744 20.729V30.6588L87.0038 30.8345C90.6733 35.797 100.327 43.8689 100.736 44.2103L101.154 44.5587L101.574 44.2123C101.983 43.8748 111.644 35.8863 115.315 30.7303L115.532 30.3591L115.473 21.1141C117.16 20.2229 119.016 19.3415 121.021 18.5256V29.4579L133.923 13.6287ZM122.335 18.0096C124.889 17.0428 127.668 16.1953 130.637 15.573L122.335 25.7579V18.0096ZM71.5359 15.4093C74.404 15.8241 77.115 16.5457 79.6284 17.4448L79.668 25.619L71.5359 15.4093ZM114.03 2.86417L114.043 11.2199C111.106 12.9131 108.393 14.7492 105.842 16.7759C105.286 16.1625 104.716 15.5502 104.128 14.9388C103.394 14.1726 102.635 13.4114 101.859 12.6531C105.521 9.06524 109.567 5.81285 114.03 2.86417ZM91.9221 22.2753C90.693 21.4426 89.4462 20.6665 88.1875 19.9478V13.0491C90.6268 14.5308 92.9862 16.1625 95.2506 17.9351C94.0986 19.3355 92.9881 20.7825 91.9221 22.2753ZM96.2715 18.747C97.5547 19.7881 98.8063 20.8749 100.023 22.0043C98.8474 23.1953 97.7011 24.4449 96.5758 25.7589C95.5341 24.8985 94.3367 23.9694 92.999 23.0207C94.0463 21.5527 95.136 20.1276 96.2715 18.747ZM104.827 17.5987C103.497 18.7004 102.212 19.8556 100.96 21.0753C99.7144 19.9171 98.4331 18.8035 97.1193 17.7366C98.3403 16.3025 99.612 14.9149 100.934 13.5731C102.305 14.9071 103.603 16.2489 104.827 17.5987ZM104.629 26.6721C102.867 28.0923 101.65 29.2406 101.021 29.8619C100.415 29.2247 99.2484 28.0505 97.5824 26.6104C98.6915 25.3162 99.8244 24.0846 100.983 22.9115C102.239 24.1193 103.454 25.3728 104.629 26.6721ZM96.7299 27.6228C99.1422 29.713 100.493 31.2325 100.513 31.2553L100.992 31.7983L101.486 31.2692C101.506 31.2474 102.917 29.7478 105.508 27.6616C106.333 28.6064 107.136 29.5741 107.917 30.5626L101.197 36.9453L94.3723 30.6082C95.1499 29.5771 95.9343 28.5826 96.7299 27.6228ZM101.92 21.9835C103.146 20.7915 104.406 19.662 105.707 18.5852C107.043 20.1067 108.284 21.6351 109.426 23.1656C109.302 23.2469 109.183 23.3274 109.064 23.4067C107.797 24.2583 106.662 25.0851 105.666 25.8533C104.46 24.5163 103.21 23.2261 101.92 21.9835ZM106.725 17.7634C109.016 15.9482 111.442 14.2887 114.048 12.7494L114.059 20.3757C112.778 21.0764 111.598 21.777 110.529 22.453C109.364 20.8888 108.095 19.3246 106.725 17.7634ZM88.1875 2.93463C92.5386 6.08678 96.4878 9.34711 99.9938 12.67C99.3087 13.3647 98.6369 14.0684 97.9805 14.7839C97.3413 15.4827 96.7136 16.1963 96.0974 16.9208C93.57 14.9408 90.9271 13.1315 88.1875 11.5087V2.93463ZM82.8375 17.2761C82.2062 17.0062 81.5728 16.7501 80.9386 16.5099L80.903 9.18434C82.9363 10.1133 84.9281 11.1435 86.8715 12.268V19.2204C85.5367 18.5058 84.19 17.8557 82.8375 17.2761ZM91.1653 23.3542C90.1278 24.8577 89.1339 26.402 88.1884 27.9851V21.4764C89.2604 22.1075 90.2564 22.7408 91.1653 23.3542ZM101.156 42.8407C99.2847 41.2527 91.6286 34.6685 88.3169 30.3879C89.5479 28.2084 90.856 26.1142 92.2422 24.1015C93.5394 25.0225 94.7062 25.9287 95.7239 26.7713C94.7912 27.8977 93.8723 29.0699 92.9624 30.2926L92.6077 30.769L101.206 38.7546L109.691 30.6965L109.323 30.2231C108.428 29.0689 107.501 27.9424 106.546 26.8457C107.503 26.1073 108.59 25.3162 109.796 24.5064C109.929 24.4161 110.067 24.3247 110.205 24.2334C111.648 26.2522 112.916 28.2749 114.003 30.2917C110.706 34.7131 103.033 41.2636 101.156 42.8407ZM114.07 27.7379C113.236 26.3355 112.316 24.9292 111.308 23.5209C112.157 22.986 113.076 22.4351 114.061 21.8823L114.07 27.7379ZM115.461 19.6303L115.411 11.9613C117.193 10.9599 119.057 10.0081 121.019 9.09701V17.1034C119.019 17.8954 117.161 18.7549 115.461 19.6303Z" fill="white"/>
</g>
</g>
<defs>
<clipPath id="clip0_1085_138397">
<rect width="204.773" height="44.0166" fill="white" transform="translate(0.280273 0.375)"/>
</clipPath>
</defs>
</svg>
