<svg width="98" height="32" viewBox="0 0 98 32" fill="none" xmlns="http://www.w3.org/2000/svg">
<path fill-rule="evenodd" clip-rule="evenodd" d="M18.5916 6.49781C18.5916 6.39025 18.5044 6.30225 18.3969 6.30225H13.9193C13.8118 6.30225 13.7246 6.38944 13.7246 6.497V16.2333C13.7246 16.8829 13.6339 17.4439 13.3618 17.9753C13.1502 18.4477 12.7572 18.8906 12.334 19.2744C11.9107 19.6583 11.3364 19.9535 10.762 20.1897C10.2481 20.3669 9.70393 20.485 9.25047 20.485C8.49472 20.485 7.25527 20.1307 6.2879 19.304C5.2903 18.5363 4.83685 17.4734 4.83685 16.1743V6.497C4.83685 6.38944 4.74965 6.30225 4.64209 6.30225H0.194756C0.0871953 6.30225 0 6.39032 0 6.49788V16.1743C0 22.1679 5.38099 25.209 9.25047 25.209C13.4827 25.209 18.5916 21.9022 18.5916 16.2333V6.49781ZM0.194756 26.7845C0.0871953 26.7845 0 26.8717 0 26.9793V31.3165C0 31.424 0.0871951 31.5112 0.194756 31.5112H18.3969C18.5044 31.5112 18.5916 31.424 18.5916 31.3165V26.9793C18.5916 26.8717 18.5044 26.7845 18.3969 26.7845H0.194756Z" fill="white"/>
<path d="M35.7402 25.2088C35.6327 25.2088 35.5455 25.1216 35.5455 25.0141V23.0598C33.9319 24.3823 31.8574 25.2088 29.6182 25.2088C24.4483 25.2419 20.2004 21.043 20.1674 15.8522C20.1345 10.6614 24.3165 6.42946 29.4865 6.36334C31.7915 6.36334 33.8661 7.15683 35.5126 8.51238V0.194756C35.5126 0.0871955 35.5998 0 35.7073 0H40.4221C40.5296 0 40.6167 0.0870403 40.6169 0.194502L40.6493 25.0138C40.6494 25.1215 40.5622 25.2088 40.4545 25.2088H35.7402ZM34.1954 15.7861C34.1625 14.5297 33.7014 13.3725 32.8123 12.4799C31.9232 11.6533 30.7707 11.1574 29.5194 11.1574C28.2681 11.1574 27.1155 11.6202 26.2265 12.5129C25.4032 13.4387 24.8763 14.5628 24.9093 15.8191C24.9093 17.0755 25.3703 18.2327 26.2594 19.1254C27.1485 20.018 28.301 20.4809 29.5523 20.4809C30.8036 20.4479 31.9562 19.985 32.8453 19.0923C33.7344 18.1996 34.1954 17.0094 34.1954 15.7861Z" fill="white"/>
<path d="M61.1584 14.3958C61.1851 14.4905 61.1294 14.5845 61.0355 14.6139L48.0408 18.6768C48.513 19.293 48.8339 19.5396 49.5407 19.908C50.6949 20.4831 51.9408 20.5772 53.1103 20.2085C54.3014 19.7981 55.2682 19.0064 55.8525 17.8831C55.8608 17.8671 55.8724 17.845 55.8846 17.8214C55.9181 17.757 55.9845 17.7166 56.057 17.7165L60.6821 17.7058C60.8112 17.7055 60.9047 17.8291 60.8686 17.9531C59.8885 21.3211 58.3939 23.5167 54.5773 24.7541C49.6247 26.3504 44.3128 23.6083 42.6847 18.6614C41.0881 13.7045 43.8265 8.38945 48.7691 6.76149C53.7217 5.16516 59.0335 7.90725 60.6617 12.8541C60.7215 13.0438 61.0385 13.969 61.1584 14.3958ZM47.5155 13.5908C47.3053 14.0377 47.1387 14.5447 47.0603 15.0564C47.0393 15.1934 47.1709 15.2993 47.3031 15.2576L54.9726 12.8394C55.1032 12.7982 55.1512 12.6388 55.0581 12.5385C54.6933 12.1455 54.2624 11.8377 53.7857 11.5443C52.6831 11.0225 51.4273 10.8967 50.2261 11.2754C49.0666 11.6758 48.1098 12.4992 47.5155 13.5908Z" fill="white"/>
<path d="M81.6251 6.30225C81.7672 6.30225 81.8615 6.44946 81.802 6.57849L73.2712 25.0957C73.2394 25.1648 73.1703 25.209 73.0943 25.209H69.4479C69.3732 25.209 69.3051 25.1663 69.2726 25.099L60.3216 6.58176C60.2591 6.45244 60.3533 6.30225 60.497 6.30225H66.0032C66.0779 6.30225 66.146 6.34499 66.1785 6.41225L71.2394 16.8834L75.9388 6.41723C75.9702 6.34726 76.0398 6.30225 76.1165 6.30225H81.6251Z" fill="white"/>
<path d="M86.8762 24.5868C86.0792 24.292 85.3487 23.8336 84.5186 23.1132C83.1903 21.8688 82.493 20.166 82.5927 18.2668C82.5927 18.234 82.5927 18.234 82.5927 18.234V18.0717C82.5927 17.9629 82.6817 17.8753 82.7905 17.877L86.7101 17.9393H86.8474C86.955 17.9393 87.0422 18.0265 87.0422 18.1341V18.234C87.0422 18.234 87.0754 19.1509 87.4406 19.7076C87.8723 20.428 88.8353 20.7555 90.1967 20.7555C91.3257 20.7555 92.189 20.6572 92.7203 20.3625C93.318 20.0678 93.3844 19.7076 93.3844 19.4784C93.3844 18.3323 91.2593 17.9066 89.9975 17.7756C88.5696 17.6446 87.3078 17.3499 86.3117 16.8915C85.3155 16.4985 84.5186 15.9418 83.8877 15.2869C82.9911 14.3045 82.5594 13.1912 82.5594 11.8813C82.5594 10.1458 83.2568 8.93419 83.8877 8.24653C85.2159 6.77296 87.341 5.98706 90.2299 5.98706C94.0485 5.98706 95.9744 7.6571 96.871 9.06518C97.9668 10.7025 97.9668 12.4708 97.9668 12.6672V12.7999C97.9668 12.9075 97.8796 12.9947 97.772 12.9947H93.712C93.6044 12.9947 93.5172 12.9075 93.5172 12.7999V12.7C93.5172 12.6672 93.5172 12.6672 93.5172 12.6672C93.5172 12.4708 93.484 11.9141 93.1852 11.5211C92.6871 10.8335 91.6577 10.4405 90.2963 10.4405C88.7689 10.4405 87.2082 10.8335 87.2082 11.7176C87.2082 12.1433 87.4406 12.4708 87.9387 12.7655C88.5032 13.0929 89.3666 13.3222 90.562 13.4531C93.3512 13.7478 95.4431 14.6647 96.705 16.1056C97.5351 17.0879 98 18.234 98 19.5111C98 20.1006 98 21.6069 96.7381 23.0149C96.1072 23.7354 95.2439 24.292 94.1813 24.6522C93.0856 25.0124 91.7905 25.2089 90.2631 25.2089C88.9681 25.1762 87.8723 25.0124 86.8762 24.5868Z" fill="white"/>
</svg>
