<svg xmlns="http://www.w3.org/2000/svg" viewBox="0 0 400 400"><g fill="none" stroke-width="2"><path stroke="#f08826" d="M303.78 49.07q-.38-1.15-1.72-.93-21.84 3.63-42.33 5.11M257.98 53.16q-5.1-11.34-11.48-21.5" vector-effect="non-scaling-stroke"/><path stroke="#e5682c" d="M243.92 74.72q-2.59 1.24-5.9-.76c-5.47-3.31-11.1-5.82-17.04-8.25M282.87 97.79q-.2-.39-.62-.17-.26.13-.51-.03-.38-.25-.23-.65.25-.66-.4-.93-9.17-3.69-17.85-8.44c-1.61-.87-3.31-1.12-5.02-2.05-2.65-1.44-5.31-2.67-8.08-3.87-1.19-.52-1.89-1.71-3.64-1.65q-.53.02-.51-.51.09-2.29-1.28-1.81" vector-effect="non-scaling-stroke"/><path stroke="#dc4f32" d="M229.56 99.31q-.7-1.03-1.35.17-.24.45-.69.21-2.91-1.59-5.67-3.36c-.74-.48-1.22-.4-2.02-.25q-.49.1-.91-.16-6.69-4.04-13.72-6.41M263.59 120.61l-.43-1.48a1.04 1.03-85.6 0 0-.56-.66l-32.08-15.1" vector-effect="non-scaling-stroke"/><path stroke="#d33335" d="M216.56 123.79q-.96.16-1.09.99a.96.96 0 0 1-1.8.28l-13.51-26.81" vector-effect="non-scaling-stroke"/><path stroke="#c8213d" d="M192.01 176.65q-.61-.39.3-2.12a.18.18 0 0 0-.28-.22l-.65.65q-.44.44-1.01.17l-25.29-11.84" vector-effect="non-scaling-stroke"/><path stroke="#d33335" d="m255.47 125.19-35.07 3.74q-.42.04-.62-.33-.41-.78-1.62-.93" vector-effect="non-scaling-stroke"/><path stroke="#c8213d" d="M240.46 201.38q-.63-.98-.8-2.44-.07-.61-.62-.87l-42-19.86q-.28-.13-.44.14-.67 1.23-1.58.63" vector-effect="non-scaling-stroke"/><path stroke="#be2147" d="m183.7 195.77-.27-.87q-.19-.62-.55-.09-.62.91-1.56.42-11.41-6.03-25.02-11.16M232.22 218.67q-5.01-3.39-10.73-5.53-.91-.34-2.14-1.26c-1.72-1.29-4.29-1.7-5.72-2.49q-12.94-7.19-26.81-11.55" vector-effect="non-scaling-stroke"/><path stroke="#b32152" d="M172.82 221.59q-8.82-4.87-17.97-9.21-2.51-1.19-5.26-1.69-.49-.09-.71-.55l-.34-.73a.15.15 0 0 0-.29.06q0 .14.01.28a.16.09 74.5 0 1-.02.08q-.16.44-1.09-.14M216.41 241.88q-1.35-.2-2.92 1.79-.47.6-.44-.17.06-1.5-1.33-2.18-16.11-7.91-32.37-15.51-.42-.19-.87-.1-1.11.24-1.19-.73-.1-1.16-.49-.07-.86 2.35-1.61 1.29" vector-effect="non-scaling-stroke"/><path stroke="#992568" d="M155.22 266.75q-.53.08-.88-.01-.36-.11-.49-.61c-.17-.68-.05-1.03-.39-1.69q-6.3-12.63-13.56-25.65M170.83 269.54l-12.68 1.55" vector-effect="non-scaling-stroke"/><path stroke="#57276e" d="M124.73 353.96q-2.62.01-4.11-.9" vector-effect="non-scaling-stroke"/></g><path fill="#f69925" d="M281.05 0h2.99c21.09 5.06 23.28 32.07 19.74 49.07q-.38-1.15-1.72-.93-21.84 3.63-42.33 5.11 8.41-12.86 16.84-23.93.36-.14.35-.53-.01-.44-.27-.09l-18.67 24.46q-5.1-11.34-11.48-21.5 9.25-12.04 23.56-25.35 5.29-4.92 10.99-6.31Z"/><path fill="#ea7627" d="M246.5 31.66q6.38 10.16 11.48 21.5l-14.06 21.56q-2.59 1.24-5.9-.76c-5.47-3.31-11.1-5.82-17.04-8.25q11.69-17.18 25.52-34.05Z"/><path fill="#852879" d="M331.01 40.28a.5.5 0 0 0-.94-.25l-1.81 3.77a.65.65 0 0 1-1.17.01l-2.15-4.25q-.43-.85-.59.09c-.17 1 .25 4.61.01 5.02q-.19.31-.57.35-.54.04-.54-.51l.01-7.41a.78.78 0 0 1 1.47-.35l2.58 5.18a.33.33 0 0 0 .6 0l2.42-4.84a.88.88 0 0 1 1.67.39v7.01a.54.53 6.1 0 1-.65.52q-.77-.17-.7-.77.23-2.08.36-3.96ZM317.57 37.9l-1.96-.38a.37.37 0 0 1 .07-.74l5.79-.05a.54.54 0 0 1 .09 1.07l-1.89.31q-.42.07-.42.49v5.93q0 .54-.55.49-.42-.05-.63-.43-.14-.25-.09-.7.29-2.69.11-5.41a.64.64 0 0 0-.52-.58Z"/><path fill="#ea7627" d="M303.78 49.07c-3.35 16.95-12.09 34.19-20.91 48.72q-.2-.39-.62-.17-.26.13-.51-.03-.38-.25-.23-.65.25-.66-.4-.93-9.17-3.69-17.85-8.44c-1.61-.87-3.31-1.12-5.02-2.05-2.65-1.44-5.31-2.67-8.08-3.87-1.19-.52-1.89-1.71-3.64-1.65q-.53.02-.51-.51.09-2.29-1.28-1.81l15-24.43q20.49-1.48 42.33-5.11 1.34-.22 1.72.93Z"/><path fill="#df5930" d="M220.98 65.71c5.94 2.43 11.57 4.94 17.04 8.25q3.31 2 5.9.76l-14.36 24.59q-.7-1.03-1.35.17-.24.45-.69.21-2.91-1.59-5.67-3.36c-.74-.48-1.22-.4-2.02-.25q-.49.1-.91-.16-6.69-4.04-13.72-6.41l15.78-23.8ZM282.87 97.79c-4.95 8.67-10.63 17.41-19.28 22.82l-.43-1.48a1.04 1.03-85.6 0 0-.56-.66l-32.08-15.1 14.21-25.69q1.37-.48 1.28 1.81-.02.53.51.51c1.75-.06 2.45 1.13 3.64 1.65 2.77 1.2 5.43 2.43 8.08 3.87 1.71.93 3.41 1.18 5.02 2.05q8.68 4.75 17.85 8.44.65.27.4.93-.15.4.23.65.25.16.51.03.42-.22.62.17Z"/><path fill="#d84533" d="M205.2 89.51q7.03 2.37 13.72 6.41.42.26.91.16c.8-.15 1.28-.23 2.02.25q2.76 1.77 5.67 3.36.45.24.69-.21.65-1.2 1.35-.17l-13 24.48q-.96.16-1.09.99a.96.96 0 0 1-1.8.28l-13.51-26.81 5.04-8.74Z"/><path fill="#cd2137" d="m200.16 98.25 13.51 26.81a.96.96 0 0 0 1.8-.28q.13-.83 1.09-.99c-10.76 21.05-16.38 35.13-24.55 52.86q-.61-.39.3-2.12a.18.18 0 0 0-.28-.22l-.65.65q-.44.44-1.01.17l-25.29-11.84q15.58-33.39 35.08-65.04Z"/><path fill="#d84533" d="m230.52 103.37 32.08 15.1a1.04 1.03-85.6 0 1 .56.66l.43 1.48-8.12 4.58-35.07 3.74q-.42.04-.62-.33-.41-.78-1.62-.93l12.36-24.3Z"/><path fill="#cd2137" d="M240.46 201.38q-.63-.98-.8-2.44-.07-.61-.62-.87l-42-19.86q-.28-.13-.44.14-.67 1.23-1.58.63 10.46-26.19 23.14-51.31 1.21.15 1.62.93.2.37.62.33l35.07-3.74q9.92-1.44 18.81-6.24.6-.32.44.34c-4.68 19.07-13.49 36.66-32.12 44.43a.26.26 0 0 0 .15.49q9.34-1.79 17.33-6.93a.28.28 0 0 1 .4.37c-6.02 11.43-13.77 20.3-25.87 25.73a.24.24 0 0 0 .14.45q6.8-1.21 13.12-3.96.67-.29.42.4l-7.83 21.11Z"/><path fill="#c22042" d="m165.08 163.29 25.29 11.84q.57.27 1.01-.17l.65-.65a.18.18 0 0 1 .28.22q-.91 1.73-.3 2.12l-8.31 19.12-.27-.87q-.19-.62-.55-.09-.62.91-1.56.42-11.41-6.03-25.02-11.16l8.78-20.78ZM240.46 201.38l-8.24 17.29q-5.01-3.39-10.73-5.53-.91-.34-2.14-1.26c-1.72-1.29-4.29-1.7-5.72-2.49q-12.94-7.19-26.81-11.55l8.2-18.86q.91.6 1.58-.63.16-.27.44-.14l42 19.86q.55.26.62.87.17 1.46.8 2.44Z"/><path fill="#b9214c" d="M156.3 184.07q13.61 5.13 25.02 11.16.94.49 1.56-.42.36-.53.55.09l.27.87-10.88 25.82q-8.82-4.87-17.97-9.21-2.51-1.19-5.26-1.69-.49-.09-.71-.55l-.34-.73a.15.15 0 0 0-.29.06q0 .14.01.28a.16.09 74.5 0 1-.02.08q-.16.44-1.09-.14l9.15-25.62ZM186.82 197.84q13.87 4.36 26.81 11.55c1.43.79 4 1.2 5.72 2.49q1.23.92 2.14 1.26 5.72 2.14 10.73 5.53-6.71 12.97-15.81 23.21-1.35-.2-2.92 1.79-.47.6-.44-.17.06-1.5-1.33-2.18-16.11-7.91-32.37-15.51-.42-.19-.87-.1-1.11.24-1.19-.73-.1-1.16-.49-.07-.86 2.35-1.61 1.29l11.63-28.36Z"/><path fill="#ac2157" d="m172.82 221.59-17.6 45.16q-.53.08-.88-.01-.36-.11-.49-.61c-.17-.68-.05-1.03-.39-1.69q-6.3-12.63-13.56-25.65 2.68-14.15 7.25-29.1.93.58 1.09.14a.16.09 74.5 0 0 .02-.08q-.01-.14-.01-.28a.15.15 0 0 1 .29-.06l.34.73q.22.46.71.55 2.75.5 5.26 1.69 9.15 4.34 17.97 9.21ZM216.41 241.88q-18.94 21.33-45.58 27.66l-12.68 1.55 17.04-44.89q.75 1.06 1.61-1.29.39-1.09.49.07.08.97 1.19.73.45-.09.87.1 16.26 7.6 32.37 15.51 1.39.68 1.33 2.18-.03.77.44.17 1.57-1.99 2.92-1.79Z"/><path fill="#852879" d="M139.9 238.79q7.26 13.02 13.56 25.65c.34.66.22 1.01.39 1.69q.13.5.49.61.35.09.88.01-16.19 43.33-30.49 87.21-2.62.01-4.11-.9l15.86-47.29a.81.8 10.6 0 0-.73-1.06q-12.27-.57-23.47 4.53-2.38 1.09-.37-.58 8.67-7.17 19.52-10.02a.13.12-41.1 0 0 .02-.24q-8.11-2.96-14.37-8.97a.19.19 0 0 1 .2-.31q8.25 3.51 17.21 3.14a.82.81-4.9 0 0 .78-.91c-1.63-13.33-8.56-26.22-16.27-37a.23.23 0 0 1 .3-.33q9.27 5.5 16.21 13.69a.2.2 0 0 0 .35-.11q.9-13.92 4.04-28.81ZM158.15 271.09l12.68-1.55c16.59 3.41 30.53-2.1 42.55-13.54a.16.16 0 0 1 .25.18c-7.25 14.63-16.59 24.22-31.74 30.65q-.94.4.07.52 10.38 1.27 17.75-5.81a.31.3 83.6 0 1 .47.38c-10.98 18.66-30.6 24.36-50.85 22.97a.35.35 0 0 0-.27.6q6.27 6.18 7.22 15 .1.89-.4.14c-3.15-4.77-4.98-8.63-10.35-12.2q-.47-.31-.28-.84l12.9-36.5Z"/><path fill="#282662" d="M120.62 353.06q1.49.91 4.11.9-6.46 19.76-12.46 39.54-1.37 4.53-5.55 6.23a.39.39 0 0 1-.52-.48l14.42-46.19Z"/></svg>